/* XPM */
static char *_300df9b171c413b925f6ec3a8890eee4rzHqPYcSN0Apf1D[] = {
/* columns rows colors chars-per-pixel */
"50 50 239 2 ",
"   c #190F05",
".  c #1B170B",
"X  c #1D1A12",
"o  c #241B0C",
"O  c #25190A",
"+  c #241C14",
"@  c #261D19",
"#  c #281E19",
"$  c #251B13",
"%  c #2C240E",
"&  c #222216",
"*  c #2B2414",
"=  c #252319",
"-  c #2C231C",
";  c #2D291D",
":  c #26281B",
">  c #332A16",
",  c #332B1B",
"<  c #3A2C1C",
"1  c #322519",
"2  c #3A321E",
"3  c #37311B",
"4  c #2D2421",
"5  c #2D2922",
"6  c #2C2E2C",
"7  c #332B23",
"8  c #362C26",
"9  c #2C3128",
"0  c #3C3323",
"q  c #3C342C",
"w  c #3B3B2D",
"e  c #353426",
"r  c #2C363C",
"t  c #3A3937",
"y  c #272C33",
"u  c #42311E",
"i  c #433425",
"p  c #433A25",
"a  c #443C2A",
"s  c #4B3C2D",
"d  c #463528",
"f  c #473D35",
"g  c #4F3B2D",
"h  c #3F4033",
"j  c #49412D",
"k  c #4D4533",
"l  c #4A4638",
"z  c #524A36",
"x  c #534B3B",
"c  c #5A4B3B",
"v  c #554536",
"b  c #5A523D",
"n  c #57513B",
"m  c #53462C",
"M  c #65573D",
"N  c #634B3A",
"B  c #363D45",
"V  c #2E3B43",
"C  c #3A4349",
"Z  c #3A4956",
"A  c #3E505C",
"S  c #3C5667",
"D  c #494947",
"F  c #574E43",
"G  c #5B5443",
"H  c #5B5649",
"J  c #474C54",
"K  c #495259",
"L  c #585856",
"P  c #604E43",
"I  c #655344",
"U  c #69564A",
"Y  c #6C5B4C",
"T  c #655948",
"R  c #645D52",
"E  c #705E4F",
"W  c #5D625D",
"Q  c #6A624E",
"!  c #66614D",
"~  c #73654C",
"^  c #6B6453",
"/  c #6C6B5B",
"(  c #666458",
")  c #746B54",
"_  c #766958",
"`  c #78715B",
"'  c #6D705F",
"]  c #485A68",
"[  c #545B63",
"{  c #4D5F70",
"}  c #5B636C",
"|  c #4A6577",
" . c #586B79",
".. c #686968",
"X. c #756D65",
"o. c #6E7168",
"O. c #7C7564",
"+. c #7C7B6C",
"@. c #787669",
"#. c #666C74",
"$. c #68747A",
"%. c #7C7C74",
"&. c #787776",
"*. c #866C55",
"=. c #85785E",
"-. c #837463",
";. c #837B65",
":. c #847D6B",
">. c #8C7C66",
",. c #837C73",
"<. c #957E6C",
"1. c #7E817A",
"2. c #7D806F",
"3. c #84826D",
"4. c #8B836B",
"5. c #8A8569",
"6. c #97866D",
"7. c #848473",
"8. c #8A8472",
"9. c #8C8974",
"0. c #84847B",
"q. c #8A847B",
"w. c #8C8C7B",
"e. c #87897B",
"r. c #9B8B7B",
"t. c #958976",
"y. c #8D917D",
"u. c #94927D",
"i. c #9B937B",
"p. c #A38D76",
"a. c #A2937B",
"s. c #A9957B",
"d. c #B49A7F",
"f. c #597484",
"g. c #687A87",
"h. c #767B84",
"j. c #827D81",
"k. c #7C8288",
"l. c #778893",
"z. c #6D8493",
"x. c #8A8985",
"c. c #948E82",
"v. c #988E89",
"b. c #8C9187",
"n. c #949484",
"m. c #9B9484",
"M. c #94938A",
"N. c #9D9C8C",
"B. c #999889",
"V. c #868B96",
"C. c #8D949A",
"Z. c #9B9B94",
"A. c #969797",
"S. c #A39483",
"D. c #A59B85",
"F. c #AA9B85",
"G. c #A39C8C",
"H. c #AC9D8B",
"J. c #A89686",
"K. c #B19D89",
"L. c #A29D93",
"P. c #A89E96",
"I. c #B29F91",
"U. c #9EA193",
"Y. c #9DA39A",
"T. c #9BA08C",
"R. c #A5A18C",
"E. c #ACA28D",
"W. c #A9A086",
"Q. c #B2A28C",
"!. c #B0A086",
"~. c #A4A393",
"^. c #ABA493",
"/. c #ADAB95",
"(. c #A4A49B",
"). c #AAA59B",
"_. c #ADAA9B",
"`. c #A5A99C",
"'. c #B2A493",
"]. c #B3AA95",
"[. c #BBAC95",
"{. c #B3AB9C",
"}. c #BAAC9A",
"|. c #B5A79A",
" X c #B4B19D",
".X c #BBB29D",
"XX c #AFB09E",
"oX c #979DA2",
"OX c #9CA3A6",
"+X c #9FA5B1",
"@X c #A5A6A2",
"#X c #ACACA3",
"$X c #ACACAA",
"%X c #A6A9A7",
"&X c #B3ADA3",
"*X c #B5AEA7",
"=X c #ADB3A5",
"-X c #ACB3AA",
";X c #B3B2A5",
":X c #BBB3A3",
">X c #B4B3AB",
",X c #BBB5AB",
"<X c #BBB9AC",
"1X c #B7BAA9",
"2X c #A5ACB6",
"3X c #ADB4B7",
"4X c #B3B4B3",
"5X c #BAB5B3",
"6X c #B5BBB3",
"7X c #BCBBB4",
"8X c #B5BABC",
"9X c #B6B9BB",
"0X c #C6B198",
"qX c #C3BBAD",
"wX c #C5B8A7",
"eX c #C2BDB3",
"rX c #C6BDB7",
"tX c #BEC5B9",
"yX c #CAC5B8",
"uX c #D4CBB8",
"iX c #D1C9B4",
"pX c #E0D1BC",
"aX c #B6BDC6",
"sX c #BCC3CB",
"dX c #BEC4D0",
"fX c #C2CAC9",
"gX c #D6DACA",
"hX c #C4CCD5",
"jX c #C9D3DB",
"kX c #CFD5CD",
"lX c #E7D9C7",
"zX c #DCE3DA",
"xX c #E7EADA",
"cX c #F4EEDE",
"vX c #CFDCE4",
"bX c #D8EAEE",
"nX c #E9FAFB",
"mX c #F3FEFD",
"MX c #E8F0E9",
/* pixels */
"nXnXnXMXzXzXxXxXkX1XT.b.U./.E.W.5.6.5.6.2.5.5.6.i.6.5.2.2.5.2.5.` ` ) 5.5.5.s.tXgXxXxXgXfXhXjXjXvXbX",
"bXbXnXmXzXyXXXT.2.@.@.y.U./.s.i.M ~ M M M M m M i.s.5.m 3 m n n ) ) 5.5.i.i.9.9.2.y.XXgXzXzXzXbXnXnX",
"nXnXMXkX Xi.5.3.u.9.@.) ! n j p m m m m ! M M n i./.s.3 % > 3 : % % 2 n ~ 2.5.y.y.2.2.1.#XtXMXmXmXmX",
"nXsXY.B.R.W.t.3.n j w w j z M ~ ~ ) 5.6.s.a.d.i.!.iX.X3 ; , h 3 3 j j 3 > 3 p j ! 2.y.2.o.X.@XzXMXMX",
"T.`.R.W.W.6.) ~ ~ ) ` ;.5.5.6.t.t.5.i.i.R.s./.5.qXiX^.$ : * q a 0 j z z z n z k p n ! 2.@.2.q.b.kXgX",
"B.XXT.5.=.M M =.a.D. X<XwX.X[.[.wX X XW.R.XX Xu.iXuXD.# ; * # 7 8 8 q x H ! T n ! n > > n 2.v.n.7.w.",
"tXT.n p ~ p.s.d.W.R./././.].]..X X/.XX/.u. X Xu.iXgXG.4 4 8 $ # + . O : a k H ) M h 3 % . < I :.y.B.",
"1X/.) ~ 6.s.s.d.].^.~.`.~././.:XR.R.XXtXT.1X Xi.iXxXv.$ $ d 4 8 e 7 7 ; % X p R n 3 % % u > 1 < 9.n.",
"6X_.7.;.F.[.Q.]. X_.(.Z.U.Z.N.R.7.~.XX1X/.T.E.B.iXcXG.$ # - 8 # 4 4 5 7 , * O 0 M % u > < k > d u.U.",
"=XY.8.3.H.Q.D.R.:X_.Y.Z.Z.U.`.{.7.~./. X/.B./.G.uXcX{.- - - 8 4 @ 4 6 - - - o 2 I > d < v N u j n.~.",
"6X-XM.t.'.].F.E._.>X>X6X>X>X;X&X/.XXE././.E.E.9.wXlX#X$ 4 # # 4 # 4 7 = - 1 % 2 Q u m < ~ E d k n.~.",
"9X>Xn.9.F.Q.E.[.R.`.1X>X1X;X_.R.B.R.m.G././.].m. XiXL.  # @ # 4 4 = - + - , * 0 Q p v < ` E i k n.U.",
"7X>Xc.8.F.Q.d.0X^.{.&X).).{.}.}.D.}.{.}.{.].].R.wXiXc.  1 4 4 4 - = 4 + : , : j ! p M 2 ) T 2 k n.~.",
"7X1Xr.<.a.s.6.6.F.].{.^.'.}.[.0X[.].D.Q.0XwX}.t.wXgX-.. 4 1 4 1 4 + - ; 7 > % k ! j T 0 H n 2 x n.~.",
"eX&Xt.=.6.6.*.*.6.J.Q.H.F.F.s.p.r.6.` 6.].wX}.4.].uXY o $ # 4 # - $ ; e 0 > * b ! j b j j l e F y.T.",
"yX:Xt.>.s.d.p.s.Q.[.}.E.D.F.K.s.J.'.G.F.Q.Q.Q.r.F.pXc * o $ 8 4 7 $ , q h & % H ! 0 z j 0 k 3 n y.T.",
"rXqX<.>.d.0X0XQ.:XqXrXeX5XwXwXwX{.eX:X:XE.H.Q.F.t.iXc o > - $ $ 4 + 4 = ; & & ! T d i > i a < n T.T.",
"rXwX-.=.p.[.[.].:X,X,X>X*X5XqX*X*X7X=X_.G.S.H.a.Q.pX=.Y u.{.&X#X,.X.L D ( H : ( R v s u c x 0 H n.n.",
"rX*X_ -.t.K.Q.].:X*X$X$X*X*X*X|.(.;X;X{.^.i.K.J.0XlX~ < a f q - 8 q 5 : l w X ' Y I v g Y I 2 ! T.T.",
"eX*XO.t.J.K.F.'.qX>X5X4X*X|.|.*XU.1X<X:XG._ *._ 6.wXc O o * - - + X X X : : . / U U U v ~ b > ! T.n.",
"5X*X,.v.I.H.J.^.:X&X;X;X&XP.I.wX~.#X:X;X X4.>.` Q.pXT O $ o + - 8   = 6 . & X l F U E I E N > ^ y.y.",
"aX*X,.v.G.F.S.^.^.~.).&X).S.I.wX&XU.).;XuX].0XJ.Q.uXc O * ; - = 4   l ( : e w ! c F E I E g , _ T.u.",
"9X9Xx.v.G.I.G.].|.L.).;X|.J.I.wX;X(.#X).qXt.r.>.s.wXv   - ; - = X $ D / . & & ! G v U I U k , ^ 9.2.",
"3XaXM.v.~.^.E.].,X#X{.<XwXI.I.wX).`.eX;X{.^ -.` 6.wXN o $ @ # - - = h L : 9 ; / X.P E E U v 2 Q ` ! ",
"aXaXA.x.P.G.G.{.:X>X:XP.qX|.0XwX).#X#X_.:XY -.r.S.rXI   < $ # 4 4 # @ & 9 9 e ( v Y U Y ~ a 0 ` O.` ",
"2X9XM.0.G.m.G.{.).>X<X{.qX'.I.'.).#XP.).qX-.r.J.wXlXE O 7 $ @ # @ @ @ & 7 9 9 ! v E I U E j 2 ^ z n ",
"2XaXA.x.N.D.G.|.L._.>X#XrX|.P.I.@X*XP.Z.&XX.<.S.0XrXg   - @ 4 7 # @ : 5 w w w ) f E I I E v 0 G j G ",
"3XsXZ.0.G.G.L._.).*X*X).qXI.K.|.>X7X>XP.:X-.v.<.S.0Xg   # @ @ + @ X = : w w h o.a U I P Y k , z , n ",
"9XsXM.,.v.G.P.{.>X6X>X`.*XG.S.P.L.5X>X~.:X-.r.c.S.I.u $ ; 7 4 # # # 4 5 w h l ,.8 U U U E s > z h / ",
"4XaXx.&.m.P.^.|._.$X*X(.5XG.S.P.Z.$X*X(.:XX.t.p.v.J.1 O # ; 4 7 4 - = = 9 e l O.d U U U ~ j > n e H ",
"9X9Xx.@.B.E.~.G.Z.L.#XoXeXP.P.:X>XyX7X>XrX:.S.J.J.K.7 1 # - @ @ 4 # & X & & = H g U P I Q p > G j H ",
"4X9X0.X.v.G.m.q.Z.P.@XP.eX@X).5X>X6X#X).eX-.v.J.<.J.i g s D v D v f k q w e q R v I g v ! 0 > H n ( ",
"aX9Xx.&.M.G.~.N.#X$X4X9X5X*X$X*XtXT.=XT.XX/.].F.t.a.-.J.H.E.F.6.<.*.*.U N v v *.d g v N v k * ` n ! ",
"4X9XA.,.n.N.&X,X,X5X5X5X4X$X*X-X=X-XtX`.XX`.wXE.p.p.~ >.>.;.;.) U N N g d < < N g d 8 d a k > O.k ' ",
"$X4Xx.o.q.u.~.{.5X7X9X$X$X#X%XY.%XtXtX>XtX{.qXS.<.>.i d d d f d g g g g d 8 8 P g f 8 8 0 j 2 ;.n 2.",
"3X$X%...7.w.y.e.,.v.L.oX#X6X6X=X-X-X1.1.y.~.eXq.x.,.i 7 8 8 t d d d f d 8 8 8 P F P F v j 0 > ` H 2.",
"4X4Xx.@.y.u.9.:.@.x.v.A.P.4X=X`.%X2X1.v.P.4XrX,.v.v.d 8 y t B B B t C f t t d L D L H R z p > ^ 2.b.",
"%X4XM.e.n.u.y.9._.>X*X`.Z.Z.Z.M.Y.9X%X6X$XrXrXv.5XeXL D J J K K K J ] K K C B [ D F f x x j 2 T 2.b.",
"@X-Xx.2.y.9.9.3.N.P.%X@X(.U.U.Y.$X$XZ.A.,.v.P.@X*X5XK B B C B Z K Z ] ] K J V J D D 6 l x k 2 b 2.Y.",
"$X$X%./ 3.3.O./ +.0.M.Z.N.b.n.T.A.Z.#X@X,.v.q.q.*X5XJ t B C Z ] S S S { { Z V B t L l F x p > b 2.OX",
"@X@X2.( 3.2.` +.x.q.x.n.(.>X<X;Xe.M.#X).c.7.O.q.|.$XR y B Z S { | f.f.S { { ] V y B D F l 8 i x 2.tX",
"@XY.1.' 5.9.O.7.c.v.A.A.(.#XXX`.o.e./.N.m.u.8.8.).$XW y B V Z S S S S S {  .{ J B y 6 D F q 0 R $.tX",
"OXZ.%.o.3.3.O.:.q.v.Z.A.M.B.b.n.n.N.^.q.3.t.3.+.{.`.L 6 B Z { S | | f.f.f.g. .[ [ B 6 t l e 2 x ' 3X",
"OXM.+.o.7.9.7.w.N.P.@XP.Y.A.B.B.*X~.~.q.:.8.;.:._.L.L t J { f.f.f.f.g.z.g.g.f.g.[ K t 8 8 w j D W 2X",
"OXx.../ @.9.n.~.@X$X$X$X%X`.Y.`.@XL.).P.~.m.q.S.L.Z.( C J ] g.j.f.g.z.z.z.h.g.k.#.&...f 6 5 w D L -X",
"A.&.L D H ^ +.7.,.&.X.&.&.&.%.1.,...&.&.X.I F _ {.m.R D } g.j.g.l.l.l.z.V.l.k.k.h.h.#.L t 5 w R L OX",
"C.o.W L L R R R ,.&.&.&.%.%.1.0.A.&.&.X.R R F X.J.j.L [ g.h.f.f.$.$.g.$.h.h.h.#.K L L K L H ( %.W Y.",
"C.k.k.b.v.q.&.....W ..#.....o.$.x.h.V.j.,.&.X.&.X.,.#.[ Z V Z Z V C V C K [ [ C C K D C L #.o...o.OX",
"oXoXoXOXoXC.l.2.S ]  .$. ...$.} k.$.V.C.2XaX3XoXj.V.j.j.C.l.j.oX .} K C ] J } K [ [ h.C.oXoXoXC.A.C.",
"dXjXvXvXvXvXdXsXsXsXkXjXdXsXdXsX2X+X3X3X2XaX+XV.aXhXaXhXjXhXjXvXvXjXaX2X2XoXaX+X+X+XaXjXhXhXfX9X+X%X"
};
