/* XPM */
static char *_280_e960ed01b6becc626d059d89b8b7561133c16d008c44bb1100e2792c3eddb0fc[] = {
/* columns rows colors chars-per-pixel */
"50 50 14 1 ",
"  c #016ABF",
". c #016EC2",
"X c #0173C5",
"o c #0078C7",
"O c #0276C9",
"+ c #017CCD",
"@ c #017FD0",
"# c #0081CF",
"$ c #0184D3",
"% c #018AD5",
"& c #0386D8",
"* c #028DDA",
"= c #088BDA",
"- c #0391DB",
/* pixels */
"@$&&&&&&%%---%*-**---------@-@--**&*%%%&$$%$$@@@+O",
"@@@&@&&&%%%%*-*-**-----@@-----@-***%%&&&&$&$@&@@O+",
"@$$@$$&&%%%%***-&--*@-----------*&**%%%%&$$$@@$@@+",
"@@@&&$&&%%%%***--------@-@-@@---***&&&%&$&$&$$@@O+",
"@@$@$$&&%%%%-%------@----@@-----*****&&%%&$$&&@@O+",
"@@$$$&&&%%%%-------------------@****%&%&$&$$$$@$@+",
"@@$$$$$%%%%%%-%-----------@-----***%*&%%%&&$$@$@O@",
"@@$$&&$&%%%%%----------------@--******%&%&$&$$@@OO",
"$$#$%#=%%%%=%---**-------@--------***-%&$&$$&$$@@O",
"+$#####%%==%%-----*--------------*****%&&$&$$&@@@@",
"###$#=##%%%%%%%%-*-%-*----------******&&&&&$$@@@@@",
"####%#=%%%%%%%%%%-*----------&--***&&*&&&$$@&&$@@@",
"###%%#%%%%%%%%%%-----*-%-------*****&%&%&$$$&@@@@@",
"$####%%#%%%%%%%%----***-*-&-&-*******&%%$&&$$&@@@@",
"###%%%==%#%%-%-%--%-**-***--*---&*-*&*%=&$$$&@@@@@",
"$#%##=#%%%%%%--------*-*&*&-*---**-**%*%&&$$$$$@@O",
"####%-%%%%%----%%-------%-----%%-*******&$$$&@@@++",
"%#%%=-%%%%--%-%%-%-------%%--%%%---*&*%%%&$$$@@@++",
"#%%%-=%%%%%---=---%-----%%%%---%****&%&$&&$$&$$@++",
"##%%---%%-%%%---%%-------%-----%-**&&&&$%&&$$&@@OO",
"##%%%--%%%-%------------%%%-%---*****&&*$=&$&$@@++",
"###%%%%--%%-----%----------%----***&***=%&$&$$@@+@",
"##%#%%%%-%%---------------%---%-****&*&*&$$$$@@@+O",
"%%%##%%%%-%%=---------------%--%****%*=%&$$$@$$@OO",
"#%###%%=%%%%--=%----------------****&&%%==@==@@@@@",
"#%%%%%%%%%%-%--%----------%-%---*&%**-**@@====@@@@",
"##%=#%==---%------------%-%%-%%-*****%&&&@=@=@@@++",
"###%=%=%%%%%%%%%-------%%%%-%-%%***%%&$#&&@@=@=@++",
"##%#%#=%#######%%%----%%%--%-%%-$$%%%&=%&&&&=@@@++",
"#=#=####%#%%%%%%---%%%---%-----%%&******&&&@@@=@@+",
"%%=####%%%%-%%----%%%%---------%---*&&%&&&$@@@@@++",
"####%#==%%%%-%%%%-%%----%%--%-%-*&****&&=&$@@@@+++",
"##=###==%%%%=%%--%%%----%%%%==%-%%%#%#%=#=####+#++",
"##=##%%%%%%%%--%-%%-%%-%--%%-=-%%%%%%#=$####+++O++",
"#%#=%##%%%%%%%%%%%%%------%%---=%%%%$$$$###+++++OO",
"######%#%%%%%%-%%%%%%--%--%%%%==%%%#$$$=$$=#+#++XX",
"####=##=%%%%%%%%%%%%%-%%-%%-%-=%#%%#%###$++++o#oOO",
"##o##==%%%%%%-%%%%%%------%%%%%%%#%##==#$$##++++OO",
"#####=%=%%%%%%%-%%%%%---%%-%%-%%%=#==##$=O#+#+#+XX",
"#o##=###%%%%%%%%%%%%%%--%%%-==####=##=##++++O++OXX",
"######=%##%%%%%-%%%#%%%%**%===&&##O==+##+O+X+X+XX ",
"+++#==#######%%%%%%%%%%%%&$=$&&==##=O=+O++oOX+oXXX",
"O+###=%###%%#%%%#%#%%%%%&&$$&$&$##++#++=++OOOOXXXX",
"o+O#########%#%%%%%%%%%%&%$=$&&&===##++#+OOOOOOXO ",
"o++o##%#%#%#%#%%%#%#%%%$&$=%&&&&+=O#O+O+++OO+OOOOO",
"+#+Xo%#####%%%%#%##%$%$$$$$&$$$&+#=+=++O+OOOOOOO  ",
"o#+ o#%##%%%%##%%###%%$$$$$$$$$##+O#+++O+OOOXOO.  ",
"+##  #%#####%%##%#%#%#$$$@$@$#$#OOO=+=+OOOXXXOX.# ",
" OO+++#++####+##=$$$#$$$$$$####+$+= ## #oo  +     ",
" O+#O##+##$#+##$$$=$$#$$#$#$$####+=##=o#+ oooo    "
};
