/* XPM */
static char *f05ef50efb0e44919602f51c00425b51YVAHFb0LxMw0N5hy[] = {
/* columns rows colors chars-per-pixel */
"50 50 202 2 ",
"   c None",
".  c #090402",
"X  c #10131A",
"o  c #140E09",
"O  c #211B20",
"+  c #27262A",
"@  c #7B0102",
"#  c #760001",
"$  c #6F1414",
"%  c #462819",
"&  c #58331E",
"*  c #522E1A",
"=  c #493528",
"-  c #5C3722",
";  c #5C3A27",
":  c #483734",
">  c #623820",
",  c #6A432C",
"<  c #7D4A30",
"1  c #755335",
"2  c #4B344E",
"3  c #375A76",
"4  c #2D5277",
"5  c #1F657B",
"6  c #30616A",
"7  c #6D5446",
"8  c #785750",
"9  c #49695E",
"0  c #5C6779",
"q  c #7E736D",
"w  c #6D7677",
"e  c #800102",
"r  c #910202",
"t  c #86180E",
"y  c #8E1513",
"u  c #A50101",
"i  c #AB0101",
"p  c #A50608",
"a  c #B80101",
"s  c #962627",
"d  c #C70102",
"f  c #D20102",
"g  c #965624",
"h  c #8A5537",
"j  c #985B39",
"k  c #8C4C2D",
"l  c #A7623C",
"z  c #B5693F",
"x  c #813C44",
"c  c #975F45",
"v  c #956444",
"b  c #996544",
"n  c #946C5C",
"m  c #AD6740",
"M  c #B46B43",
"N  c #A06B51",
"B  c #AA795A",
"V  c #A77E7F",
"C  c #AB7068",
"Z  c #C07F5A",
"A  c #C47447",
"S  c #798968",
"D  c #70987C",
"F  c #8E8951",
"G  c #AD8C52",
"H  c #AAA154",
"J  c #888662",
"K  c #9A866E",
"L  c #8D9A63",
"P  c #8B9968",
"I  c #9B9664",
"U  c #999074",
"Y  c #A69666",
"T  c #BA8C71",
"R  c #8FA06C",
"E  c #A7A275",
"W  c #D8804F",
"Q  c #C9855B",
"!  c #D88A5D",
"~  c #CB8E64",
"^  c #DD8F61",
"/  c #C89A7A",
"(  c #D49B70",
")  c #E29667",
"_  c #E39F72",
"`  c #D5A57D",
"'  c #CEA27B",
"]  c #E8A374",
"[  c #166695",
"{  c #02729F",
"}  c #177798",
"|  c #086D9F",
" . c #21708A",
".. c #207196",
"X. c #087AA5",
"o. c #247EAD",
"O. c #307CA4",
"+. c #497994",
"@. c #4D7FA0",
"#. c #937E80",
"$. c #37919A",
"%. c #1689AA",
"&. c #0684B2",
"*. c #078DBB",
"=. c #0B91BE",
"-. c #1689B0",
";. c #258EB8",
":. c #378DB7",
">. c #2990AE",
",. c #569F9F",
"<. c #4E8E8C",
"1. c #628B8F",
"2. c #718F8C",
"3. c #7FA699",
"4. c #538BA9",
"5. c #5B98B3",
"6. c #6896A9",
"7. c #7590AB",
"8. c #6BA0A4",
"9. c #0692C3",
"0. c #0993C2",
"q. c #2F9CC6",
"w. c #4CA9CE",
"e. c #56A6C9",
"r. c #54B6D8",
"t. c #69BAD9",
"y. c #73BDD9",
"u. c #8D889A",
"i. c #AE8E8D",
"p. c #BB9E9A",
"a. c #B3AF84",
"s. c #A9A79A",
"d. c #BAA699",
"f. c #B1B19C",
"g. c #A7AF93",
"h. c #8EA8AF",
"j. c #ADACAA",
"k. c #A4ABA4",
"l. c #B3ADA8",
"z. c #B5B4B2",
"x. c #BBBAB6",
"c. c #BDBCBB",
"v. c #ACA6B2",
"b. c #C09D9B",
"n. c #C39E87",
"m. c #C7A58C",
"M. c #D8A883",
"N. c #CAAB96",
"B. c #F4B485",
"V. c #FBBC8D",
"C. c #F3BB8E",
"Z. c #EDBE99",
"A. c #FFBF90",
"S. c #EBB38B",
"D. c #C99DA1",
"F. c #CDB2A0",
"G. c #C2BBBB",
"H. c #C9C199",
"J. c #C2C1BF",
"K. c #CAC5B8",
"L. c #CEC5B5",
"P. c #EAC1A5",
"I. c #91B8C3",
"U. c #B5BECC",
"Y. c #9EC2D3",
"T. c #B7C5CD",
"R. c #8DCDE4",
"E. c #A5D8EB",
"W. c #BBE1EF",
"Q. c #C4C3C1",
"!. c #C9C7C5",
"~. c #CDC9C5",
"^. c #CDCCCA",
"/. c #D0CFCD",
"(. c #D4CEC6",
"). c #D4D1CE",
"_. c #DAD5CB",
"`. c #D7CED4",
"'. c #CBD7D9",
"]. c #D5D4D2",
"[. c #D8D7D3",
"{. c #DAD8D4",
"}. c #DCDCDB",
"|. c #D1DBDC",
" X c #EFD4D7",
".X c #E2E0DD",
"XX c #FBDFE0",
"oX c #C4E5F0",
"OX c #CFE7F1",
"+X c #D9EDF4",
"@X c #E5E4E3",
"#X c #E8E7E5",
"$X c #EAE9E6",
"%X c #EDECEB",
"&X c #E7E8E5",
"*X c #FAEBE9",
"=X c #F2F1EE",
"-X c #EEF5F8",
";X c #F5F5F5",
":X c #FBFAF6",
">X c #FEFEFE",
",X c #FCF4F3",
/* pixels */
"                                                                                                    ",
"                                                                                                    ",
"                                                                                                    ",
"                                                                                                    ",
"                                          f d a i p y 2                                             ",
"                                      d a u r s C D.7.o.q.t.-X>X>X>X                                ",
"                                  i u r e $ 2 G.*X>X>XW.t.r.+X>X>XoXq.:.                            ",
"                                        x 4 | e.OX;X,X`.} +.p.d.h.y.R.+X                            ",
"                                        XXU.e.w.:.+.#.8 : k A m 2.+XoXy.                            ",
"                                        XX*X-XT.0 + m m l A A j w r.r.w.                            ",
"                                        @.6.4.4 X . m M N Q Z C 8.E.OX|.                            ",
"                                        [ O.@.u.: o l ^ m.P.M.d.5.q.:.                              ",
"                                          `. Xv.K b b ] ' T ( / f.Y.                                ",
"                                            5.[ 3 7 % h c n n T                                     ",
"                                                  O . < h j s T `                                   ",
"                                                    1 Z ~ 1 = =                                     ",
"                                                S R E N.Z.] U J                                     ",
"                                            K.f.I P R H..X(.].R I L.                                ",
"                                            [.[.(.I P L H.}.s.J I {.                                ",
"                                            ].}.[.Y G L a.@Xs.F H L.:X                              ",
"                                          [.].@Xc.S <.<.g.$XJ.S $.8..X                              ",
"                                          ]..X@X1.%.=.%.g.;X^.2.*.;.'.                              ",
"                                        ]..X:XT.%.=.=.%.K l.i.q &.*.I.%X                            ",
"                                        @X=X$X4.&.=.=.>.k @ @ $ } =.5.%X                            ",
"                                      ).$X>XT.| &.=.=.$.g @ # $ 5 &.;.|.                            ",
"                                      ).$X:X6.X.&.=.=.$.g # e y 6 X.%.'.                            ",
"                                      ].%X,X<...%.*.=.$.g @ @ t 9  .h.*X                            ",
"                                      (.$X:X    k.3.,.D Y i.K T J s.G.#X                            ",
"                                      G.{.    ]./.)._.K._.;X@XJ.~.=X].~.                            ",
"                                    B.S.Z.    /.~.}.>X:X>X:XJ.^.;X>X#Xn.V.                          ",
"                                  ! ]   B.    /.~.}.>X>X>X:XJ./.;X>X>Xm.(                           ",
"                                    ~         ^.^.}.>X>X>X>Xc.^.;X>X>XG.G                           ",
"                                              ^.~.@X>X>X>X>Xx.^.;X>X>X=X                            ",
"                                              ^.^.@X>X>X>X;Xz.^.;X>X>X>X/.                          ",
"                                              ~.^.%X>X>X>X;Xj./.:X>X>X>X=X                          ",
"                                            J.^.].:X>X>X>X%Xj.].>X>X>X>X:X                          ",
"                                            !.^..X>X>X>X>X}.j.[.:X>X>X>X>X%X                        ",
"                                            ^./.;X>X>X>X>X^.j.[.:X>X>X>X>X;X                        ",
"                                          Q.^..X>X>X>X>X>XQ.z.].;X>X>X>X>X>X].                      ",
"                                          !.].;X>X>X>X>X:Xz.c.^.;X>X>X>X:X;X%X                      ",
"                                          Q.G.}.;X>X>X>X;Xj.Q.^.{.}.{.~.c.}.@X                      ",
"                                            l.T F.K.{.@X.Xk.!.^.J.b.m.m.~.%X                        ",
"                                              ) B.m.Q.          l.B ] C.                            ",
"                                            , v B                   ) A.V.                          ",
"                                          % % ; ; >                 ^ V.A./ , -                     ",
"                                          % = 7 7 ; -             > k b b , & & - - *               ",
"                                                                                                    ",
"                                                                                                    ",
"                                                                                                    ",
"                                                                                                    "
};
