/* XPM */
static char *_e3ab4c712694e1ad4fc45999fd1ce79OogDzS6JTbY1fLPV[] = {
/* columns rows colors chars-per-pixel */
"50 50 181 2 ",
"   c None",
".  c #232321",
"X  c #393936",
"o  c #3C3D39",
"O  c #333431",
"+  c #42433D",
"@  c #464644",
"#  c #474843",
"$  c #4A4A46",
"%  c #53534E",
"&  c #545452",
"*  c #575854",
"=  c #5A5B56",
"-  c #5D5D5A",
";  c #56645B",
":  c #5F615C",
">  c #556A5E",
",  c #776F48",
"<  c #7A6E41",
"1  c #7E754C",
"2  c #676557",
"3  c #62625E",
"4  c #6F6C5E",
"5  c #5F6E64",
"6  c #5C7365",
"7  c #646562",
"8  c #676863",
"9  c #696A65",
"0  c #6D6E6A",
"q  c #607065",
"w  c #617669",
"e  c #6F706B",
"r  c #797765",
"t  c #71726D",
"y  c #657E70",
"u  c #757572",
"i  c #777874",
"p  c #7A7A75",
"a  c #7D7D7A",
"s  c #6A8276",
"d  c #7F807B",
"f  c #98894B",
"g  c #948753",
"h  c #9D915D",
"j  c #AA9748",
"k  c #B49F4A",
"l  c #AA9B5A",
"z  c #BEA744",
"x  c #B4A45C",
"c  c #BBAA5F",
"v  c #968F69",
"b  c #9F9463",
"n  c #8B8870",
"m  c #82827D",
"M  c #8C8B7B",
"N  c #92907D",
"B  c #B8A865",
"V  c #B2A573",
"C  c #BCB07F",
"Z  c #C0A947",
"A  c #CCB24B",
"S  c #C1AD59",
"D  c #D3BA52",
"F  c #C6B462",
"G  c #CBB763",
"H  c #D4BF6C",
"J  c #C9B974",
"K  c #D9C15D",
"L  c #DEC665",
"P  c #DFC96D",
"I  c #D1C17C",
"U  c #E1CC76",
"Y  c #E3CE79",
"T  c #E4D17F",
"R  c #788F82",
"E  c #858582",
"W  c #878883",
"Q  c #8A8B86",
"!  c #8D8D8A",
"~  c #908F8B",
"^  c #849286",
"/  c #879789",
"(  c #8F908B",
")  c #8D9C84",
"_  c #9D9B84",
"`  c #92928D",
"'  c #9A998A",
"]  c #959592",
"[  c #989792",
"{  c #969892",
"}  c #9A9B95",
"|  c #9D9D99",
" . c #A09F9B",
".. c #95A38D",
"X. c #98A58F",
"o. c #96A097",
"O. c #9AA692",
"+. c #9EAA95",
"@. c #9FA09B",
"#. c #99A89D",
"$. c #A4A496",
"%. c #A8A697",
"&. c #A2A29D",
"*. c #ACAF9F",
"=. c #A4B19B",
"-. c #A5A5A2",
";. c #A7ACA2",
":. c #AAABA5",
">. c #ADADA9",
",. c #B0AFA7",
"<. c #A6B2A5",
"1. c #ABB4A3",
"2. c #ADB2A9",
"3. c #B3B2A5",
"4. c #B2B2AD",
"5. c #B8B7AC",
"6. c #B5BCAD",
"7. c #BDBBAA",
"8. c #B6B5B2",
"9. c #B5BAB3",
"0. c #BABAB4",
"q. c #BDBDBA",
"w. c #C0BFBB",
"e. c #C2BFB1",
"r. c #B7C0B6",
"t. c #BBC3B3",
"y. c #BFC3BA",
"u. c #D3C794",
"i. c #E8D78E",
"p. c #E6D589",
"a. c #E9DA9A",
"s. c #E6D79A",
"d. c #C2C2BD",
"f. c #C5C9BE",
"g. c #CACDBF",
"h. c #EEE0A7",
"j. c #ECE0AC",
"k. c #EEE4B6",
"l. c #F0E7BF",
"z. c #F2E9BF",
"x. c #C6C5C1",
"c. c #C8C7C4",
"v. c #C6CAC2",
"b. c #CBCBC5",
"n. c #CDCDCA",
"m. c #D2CFC1",
"M. c #CCD1C5",
"N. c #CED1C9",
"B. c #D0D1C7",
"V. c #D3D5CD",
"C. c #D7D8CF",
"Z. c #D9D7CD",
"A. c #D5D5D1",
"S. c #D6D9D2",
"D. c #DADBD4",
"F. c #DDDDD9",
"G. c #E2DECE",
"H. c #E0DDD0",
"J. c #DFE0D6",
"K. c #DFE1DB",
"L. c #EDE7C8",
"P. c #F3EDCF",
"I. c #E4E4DC",
"U. c #F5EFD4",
"Y. c #F7F1D5",
"T. c #F8F3DF",
"R. c #E6E6E3",
"E. c #E8E7E2",
"W. c #EAEAE2",
"Q. c #ECEBE7",
"!. c #ECECE5",
"~. c #EEEDE9",
"^. c #F0EFEB",
"/. c #F9F5E4",
"(. c #F1F0EB",
"). c #FAF9EE",
"_. c #FAF7E9",
"`. c #F5F5F4",
"'. c #FCFAF2",
"]. c #FFFFFF",
"[. c #FEFEFE",
/* pixels */
"                                                                                                    ",
"                                                                                                    ",
"                                                                                                    ",
"                                                                                                    ",
"                                                                                                    ",
"                                                                                                    ",
"                          8.Q >.                                                                    ",
"                      F.c.x.4.@.} >.x.                                                              ",
"                    A.c.D.A.K.n.y.-.` &.q.q.d.b.b.n.b.b.c.b.q.-.b.                                  ",
"                  n.n.~.R.w.w.A.S.V.d.6.&.E [ q.D.D.G.I.N.N.0.E 0.                                  ",
"              F.x.A.~.Q.| 0 3 W R.!.I.B.0.( e u _ H k.`.~.V.y.! 0.                                  ",
"            n.8.F.F.A.D.-.E p -.E.E.d.' d - : N S a.[.[.[.L.J ' 0.                                  ",
"          n.d W | 0.x.c.n.c.Z.!.I.&.p 8 - - M F a.'.[.[./.L g Q :.                                  ",
"        -.-.>.] i i ~ 8.y.n.Z.E.>.3 : & 7 N G p.'.P./.).U x :.| Q a a a                             ",
"          E ! :.4.~ u t R b.Z.Z.u & & 7 Q c T ).l.l.'.i.j %.f.-.>.4.` E Q m ` @.                    ",
"          Q E d Q -.>.( 0 i  .w.a 9 m 2.x U _.U.j.).h.Z n b.!.B.8.:.&.&.] ( -.&.] ( | :.>.          ",
"            W E a a E -.>.] p t a E $.I P /.).k.).z.A v 3.I./.!.x.f.9.9.2.-.&.;.4.5.9.>.a :.R.      ",
"              W p a a a E [ >.&.W M B L /.[.[.[.Y.D h 5.I.(.~.N.o.R R R r.A.N.0.c.B.I.(.8.n.x.      ",
"            &.u 0 0 0 p p u t ! -.V K Y.[.[.[./.L B g.!.K.S.D.f.#.s s s / D.(.~.~.^.(.F.0.D.>.      ",
"            | E E 0 o o & 9 t t t j s.[.[.[.'.Y k 7.W.I.K.I.C.v.f.<.#.<.y.!.~.~.!.~.!.f.n.n.        ",
"          0.[ -.[ E = o O $ - 8 0 g u.R.~.`.s.z r a -.>.t.n.V.I.K.C.V.M.K.E.~.~.~.!.I.4.D.4.        ",
"        B.&.>.4.[ Q d 0 3 3 * + X , C D.K.H.G b :.} E p E | :.b.!.E.r.f.N.F.(.^.(.(.d.b.n.          ",
"        4.t Q Q ! ` ( m p r r + . 4 2 ! x.D.F 1 a ] :.:.} Q a W :.9.O.X.=.r.M.D.I.I.3.F.4.          ",
"      n.| p 0 3 3 3 t e m ! m * X ~ 8 i ! -.l , u u p E } >.:.[ E d ( } +.*.O.o.g.B.d.A.|           ",
"      [ } &.-.} E 9 - & & 8 t 3 2  .e ! 3.d._ r 0 t t u t u E | >.>.] E a ! | #.q.&.F.q.            ",
"      Q d d m W ] } ] Q u - & $ t  .p ' 7.g.*.$.a 5 5 9 t u t u p ! &.4.>.| ! a 9 >.A.>.            ",
"        E a p u i u p d Q Q E i  .Q p ,.g.Z.2.;.8 > ; ; u 0 t u u u p a ! &.4.4.| F.x.|             ",
"          u 7 9 9 0 u u 9 8 7 7 ,.m m g.I.D.6.=.6 6 5 > { t 7 7 0 u p i a a m !  .q.>.}             ",
"        w.0 7 p E E a d 0 3 - - 4.a W 5.t.B.y.f.^ w 6 W 4.( i e - 7 u a a a a a a ] | |             ",
"        x. .] >.:.:.>.Q - @ % p 4.i ] O.) M.f.C.f.2.=.d.v.[ m } a - ! 7 7 a E a E ! !  .            ",
"        >.c.@.4.>.0.>.3 @ @ $ [ -.u } +.=.B.N.I.I.I.I.D.V.[ N :.! 0 | u @ - t a ! E ! >.            ",
"          q.q.| x.c.4.9 * * : 8.} p :.O.1.I.I.I.I.I.I.I.D.0.[ *.| 0 ] ] & & - 0 u a E |             ",
"          -.x.>.>.c.d.>.Q E Q w.! E :...<.E.E.!.E.E.I.I.R.I.4.3.4.i &.:.- 3 7 8 9 0 p               ",
"            :.c.| q.c.w.,.[ [ d.a E 9.O.t.W.!.!.E.E.E.W.W.I.D.Z.w.u [ q.= - 8 e u p E               ",
"            [ q.q.&.c.8. .}  .0.0 t -.n.N.Z.Z.C.C.C.D.F.F.J.F.I.8.t E x.: % = = u E                 ",
"              :.c.-.>.d.4.~ } A.w.q.q.x.d.d.q.q.q.0.0.0.8.5.8.8.] E W n.p 3 : = a                   ",
"                8.x.] >.} = E 8.8.8.8.q.q.8.8.q.d.q.x.c.n.n.n.n.n.A.A.A.p 0 : i !                   ",
"                &.x.>.t 8 * m [ ! ! E ! W d m E M d E ( ] ! ! ] ] } } -.p e 0 ! !                   ",
"                  >.c.! 3 Q ] ` ! W E W W a a E m a a E Q Q E E Q ! ! [ e & d }                     ",
"                    q.w.| E u E E E E ! W a a E m p a E W W E E Q Q ! ] * - } }                     ",
"                    :.-.d t 0 0 9                           t t t u i E p ! -.                      ",
"                      ` p u u                                   7 9 0 t i ~ |                       ",
"                      [ m i                                         t u i E                         ",
"                                                                        p W                         ",
"                                                                                                    ",
"                                                                                                    ",
"                                                                                                    ",
"                                                                                                    ",
"                                                                                                    ",
"                                                                                                    "
};
