/* XPM */
static char *_0c6ef6810ba4bd5bb7c069ca2fdc7766yfh1ftrKQB19KW3[] = {
/* columns rows colors chars-per-pixel */
"50 50 155 2 ",
"   c black",
".  c #010000",
"X  c #010101",
"o  c #030000",
"O  c #020001",
"+  c #030102",
"@  c #020202",
"#  c #040001",
"$  c #050102",
"%  c #040203",
"&  c #060203",
"*  c #050304",
"=  c #070304",
"-  c #040404",
";  c gray2",
":  c #070506",
">  c #060606",
",  c #070707",
"<  c #080405",
"1  c #090506",
"2  c #080607",
"3  c #0A0607",
"4  c #090708",
"5  c #0B0708",
"6  c gray3",
"7  c #090909",
"8  c #0A0809",
"9  c #0B090A",
"0  c gray4",
"q  c #0B0B0B",
"w  c #0C0809",
"e  c #0D090A",
"r  c #0C0A0B",
"t  c #0E0A0B",
"y  c #0D0B0C",
"u  c #0F0B0C",
"i  c gray6",
"p  c #100C0D",
"a  c #110D0E",
"s  c #120E0F",
"d  c #110F10",
"f  c #130F10",
"g  c #131313",
"h  c #141011",
"j  c #151112",
"k  c #141213",
"l  c #161213",
"z  c #171314",
"x  c #151515",
"c  c #161415",
"v  c #181415",
"b  c #191516",
"n  c #1A1617",
"m  c #1B1718",
"M  c #191919",
"N  c #1B191A",
"B  c #1B1B1B",
"V  c #1C1819",
"C  c #1D191A",
"Z  c #1C1A1B",
"A  c #1E1A1B",
"S  c #1D1B1C",
"D  c #1F1B1C",
"F  c gray11",
"G  c #1E1C1D",
"H  c #1E1E1E",
"J  c gray12",
"K  c #201C1D",
"L  c #211D1E",
"P  c #201E1F",
"I  c #221E1F",
"U  c #231F20",
"Y  c gray13",
"T  c #222021",
"R  c #232122",
"E  c #232323",
"W  c #242021",
"Q  c #252122",
"!  c #242223",
"~  c #262223",
"^  c #272324",
"/  c gray14",
"(  c #252525",
")  c #262425",
"_  c gray15",
"`  c #272727",
"'  c #282425",
"]  c #292526",
"[  c #282627",
"{  c #2A2627",
"}  c #2B2728",
"|  c #282828",
" . c gray16",
".. c #2A2829",
"X. c #2B292A",
"o. c #2A2A2A",
"O. c gray17",
"+. c #2C2829",
"@. c #2D292A",
"#. c #2E2A2B",
"$. c #2F2B2C",
"%. c #2C2C2C",
"&. c #2E2C2D",
"*. c #302C2D",
"=. c #312D2E",
"-. c #322E2F",
";. c #312F30",
":. c #332F30",
">. c #323232",
",. c gray20",
"<. c #343031",
"1. c #353132",
"2. c #363233",
"3. c #373334",
"4. c #343434",
"5. c #373536",
"6. c #373737",
"7. c #383435",
"8. c #393536",
"9. c #3A3637",
"0. c #3B3738",
"q. c #3C3839",
"w. c #3D393A",
"e. c #3E3A3B",
"r. c #3F3B3C",
"t. c #403C3D",
"y. c #413D3E",
"u. c #423E3F",
"i. c #433F40",
"p. c #444041",
"a. c #454142",
"s. c #464243",
"d. c #474344",
"f. c #484445",
"g. c #494546",
"h. c #4A4647",
"j. c #4B4748",
"k. c #4C4849",
"l. c #4D494A",
"z. c #4E4A4B",
"x. c #4F4B4C",
"c. c #504C4D",
"v. c #514D4E",
"b. c #524E4F",
"n. c #534F50",
"m. c #545051",
"M. c #555152",
"N. c #565253",
"B. c #575354",
"V. c #585455",
"C. c #595556",
"Z. c #5A5657",
"A. c #5B5758",
"S. c #5C5859",
"D. c #5D595A",
/* pixels */
"k.x.n.c.j.d.f.f.k.k.c.M.x.p.j.B.d.p.p.i.p.p.j.j.f.k.c.B.B.n.k.f.x.p.u.i.p.p.j.B.c.c.M.M.f.8.q.f.t.q.",
"r.u.p.p.u.q.q.u.u.3.8.q.u.3.$.#.1.:.1.8.8.q.u.u.-.1.8.0.8.1.#.#.8.#.{ #.-.1.u.x.-.#.1.q.q.0.u.k.u.u.",
"-.1.8.8.1.-.-.1.1.{ K } -.{ z u D ~ ~ } $.-.:.1.#.-.-.-.-.#.~ K 1.} ~ ^ #.#.8.p.*.^ { -.1.1.:.8.3.3.",
"-.:.8.1.1.-.-.1.8.} ~ #.-.#.D b C K ~ #.$.$.#.} :.1.1.8.1.:.-.#.8.-.#.*.*.#.-.8.u.-.#.1.0.1.-.$.1.1.",
"q.q.u.u.0.8.8.q.r.1.#.1.8.1.3.q.-.-.:.1.1.1.-.#.{ #.$.-.:.-.-.-.#.{ { *.$.~ U { 8.#.{ 3.d.f.d.p.u.u.",
"p.p.d.d.i.r.q.u.q.-.$.1.q.q.p.c.u.r.u.q.0.1.-.-.{ } #.-.:.1.1.1.{ U ^ -.-.{ { #.3.{ { 8.f.j.j.f.p.i.",
"f.f.k.f.u.q.q.q.8.{ ~ -.u.p.p.f.p.p.u.q.8.1.1.:.:.1.3.8.8.0.8.0.1.*.#.-.-.#.-.3.0.-.-.8.u.r.q.q.p.i.",
"p.f.j.p.q.8.3.8.3.K b $.p.j.i.0.d.u.q.8.1.1.1.1.0.8.8.0.8.8.8.8.i.1.#.} ^ U { :.1.#.#.8.t.q.t.i.k.f.",
"p.u.0.0.r.q.3.-.8.1.{ } f.c.r.q.u.8.8.8.-.{ ^ -.0.8.8.i.u.1.$.-.d.u.8.-.#.{ } #.} ~ U } -.-.q.p.p.i.",
"q.8.-.$.#.#.^ K { { z h } -.U { #.} { $.{ K U #.{ U { :.1.:.1.q.*.} U K C K ~ { -.{ ^ #.#.#.-.0.#.{ ",
"z h a f z m m b K ~ h u C b a C h h h h a = 3 a f w 3 w u w u h u w 3 = $ 3 3 w K z h z f w u z 3 3 ",
"K C C C K K ~ ~ #.3.#.{ $.{ K #.K D C C h 3 $ w K m z b h u w f m m C C m z f p T b h z h w 5 a 5 5 ",
"j.f.p.p.q.q.8.8.1.p.i.u.p.r.1.u.i.q.u.u.8.#.{ -.p.u.d.k.c.f.p.f.u.p.c.M.n.k.p.q.p.t.0.t.q.1.<.8.$.$.",
"8.q.u.u.u.r.u.u.1.p.u.q.d.u.1.u.0.8.q.u.r.1.:.8.k.f.k.M.M.f.i.p.t.p.c.C.D.A.M.c.n.k.f.x.k.d.p.l.i.i.",
"b U #.1.:.:.1.3.:.q.:.#.8.1.$.8.{ ^ #.1.1.{ { $.8.1.1.8.1.#.^ { #.-.:.8.q.u.p.p.i.q.q.i.u.8.3.0.q.q.",
"3.r.d.p.0.-.} { 0.q.{ C #.#.{ 1.:.:.8.r.8.$.} -.-.} } 1.8.8.q.f.8.1.*.#.*.1.q.i.u.0.0.u.q.1.-.3.3.3.",
"q.p.k.c.p.8.-.{ r.8.$.#.{ #.#.#.{ 3.-.-.8.-.~ #.#.-.:.3.0.q.q.t.p.i.3.$.8.j.k.i.0.0.q.q.0.8.3.3.X.$.",
"p.p.u.q.1.#.#.*.8.8.3.q.u.i.u.q.-.1.#.{ q.0.-.q.{ { #.-.-.-.-.-.:.-.{ T #.r.r.1.u.r.8.3.1.1.3.8.0.q.",
"f.j.c.c.k.f.f.j.-.-.8.u.f.f.u.q.3.q.-.-.u.u.-.1.~ ~ { } #.#.} } } { ~ U } 3.3.#.u.r.3.-.$.-.1.8.u.u.",
"C { q.k.k.k.p.u.8.0.r.p.d.i.8.-.1.f.p.u.d.1.K ~ #.#.-.-.1.3.3.3.3.3.1.3.0.r.0.1.0.3.3.:.1.3.8.q.8.3.",
"h U 1.p.f.f.i.u.k.f.p.f.f.p.u.8.8.k.k.p.q.{ C } 1.1.q.q.u.p.p.p.d.i.u.p.p.u.q.8.-.:.3.q.q.u.q.q.3.8.",
"1.1.3.8.1.8.q.p.0.3.:.1.1.8.1.1.1.p.8.#.{ K ~ q.#.&.1.1.8.0.q.q.0.3.1.8.8.$.#.-.~ { -.8.0.8.1.:.8.3.",
"h h a w 3 3 a h h a a a h b b h C T b a K K C ) b b C C C C C C m h h V m f h C f z b C C C m b K U ",
"$ $ 3 w : $ o o $ o o o $ o o $ $ $ $ 3 ~ C $ o = $ $ $ $ o o $ o o o $ $ o o u $ o o o o o o o $ $ ",
"-.~ #.) b ~ 1.#.#.#.#.} } #.-.#.^ ~ U } 1.8.#.~ 8.8.:.#.{ #.1.q.1.^ ^ :.q.r.d.B.d.d.p.u.i.p.i.r.0.q.",
"p.q.p.u.1.q.k.p.p.u.q.t.q.q.q.q.u.p.d.f.k.k.c.c.c.n.M.c.c.d.u.q.x.d.r.3.:.:.:.3.$.8.q.0.1.3.0.u.3.3.",
"1.-.8.-.K *.q.*.q.q.8.1.1.:.:.1.~ #.-.-.} #.8.d.u.8.1.1.1.-.^ C #.:.#.b h K ~ m { $.:.} m u h C f f ",
"q.8.u.3.{ 1.q.#.{ ~ ~ K K K K I ~ ~ ^ U K ~ 1.u.u.-.C b K { *.-.U 0.8.K U r.d.3.$.$.#.^ m u w f w u ",
"p.f.k.q.{ 8.u.*.} { { { { } #.-.-.#.{ ~ { #.3.q.f.1.C h C #.8.q.#.d.p.^ ^ p.x.0.3.} { :.q.8.1.8.1.:.",
"t.u.p.*.C -.q.{ 8.8.8.8.q.u.u.p.8.1.-.#.-.1.1.1.u.1.#.~ { #.} { m 1.8.D C 8.d.0.r.} ^ 0.f.d.u.i.8.8.",
"d.k.k.8.{ p.C.u.u.u.u.p.i.p.f.f.f.c.c.k.p.q.t.i.k.k.j.f.u.0.1.-.C -.1.^ ^ q.k.k.8.^ ~ 3.r.3.3.r.$.-.",
"8.u.u.#.K u.A.f.f.f.p.p.p.p.p.f.8.f.b.k.3.{ #.3.f.f.d.u.8.-.-.-.f D U h a m ^ #.U b K 3.u.8.r.n.d.p.",
"t.c.k.-.C U 8.p.8.8.q.q.8.8.u.f.3.q.p.i.q.3.8.q.k.x.k.f.q.1.-.$.a 5 $ = h K ^ { #.-.3.q.u.i.u.r.0.q.",
"q.j.p.#.b b U { 1.8.8.3.1.1.8.u.i.0.1.*.-.8.r.i.j.c.C.M.f.1.^ C b h f m { 0.f.c.p.p.f.j.j.p.u.r.B.B.",
"3.t.q.#.C b C b #.#.} { ~ T ~ } &.~ z z D { } } { -.8.0.:.^ C b ^ ~ K b b D { -.~ ~ ^ ^ ~ D m b z z ",
"= 5 3 3 $ o o $ 5 5 3 = $ o o $ o o o o < < o o $ 3 w u a b K ^ :.$.~ f o o o $ o o $ = = 3 = = 5 5 ",
"a p a z h f w w 3 3 3 $ $ $ o o o 5 w 5 = o o $ f h b m K } 1.u.q.q.3.{ C m K { U ~ ^ } #.-.-.-.i.u.",
"f.u.u.p.u.8.1.8.q.q.8.r.u.u.q.0.0.q.0.-.^ } 3.i.p.f.x.c.k.j.j.j.c.c.x.k.f.f.k.c.k.k.k.x.x.x.c.c.j.j.",
"u.8.8.1.#.K I #.k.k.k.M.C.D.C.M.f.d.u.q.q.p.x.n.c.M.B.M.c.k.j.k.B.n.c.x.x.k.p.u.q.q.q.8.8.8.8.q.3.3.",
"-.{ ~ ~ h w h ^ K K K { :.3.:.-.D m C ~ $.3.*.} q.8.:.#.#.1.u.f.p.i.r.r.u.q.-.^ m b b b b m C D D D ",
"D K C a 3 $ w h 3.{ m f h K } -.} m m z ^ $.p ^ 8.} m m ^ :.3.3.{ -.3.8.:.#.} ) 1.~ b f b m b h m m ",
"8.1.*.{ { { { { $.#.} } } ^ C z } D D z } $.f ^ $.{ U m D U { } $.1.q.q.0.1.-.-.1.{ K K ^ } { U U U ",
"1.#.~ ^ } #.{ D ~ ~ -.8.u.q.1.#.} D U m } ;.f } $.:.-.} U K ~ ^ :.8.u.i.r.q.q.0.^ K V m K U D m <.<.",
"8.1.1.8.q.0.1.-.{ { { $.8.u.p.p.} U ^ D $.:.f $.3.0.0.3.$.} U U $.1.q.q.0.8.3.8.q.1.#.{ #.$.#.#.:.:.",
"-.1.q.q.3.<.<.1.1.-.{ { #.:.3.8.} U } U $.:.f $.u.0.8.0.r.3.) m #.:.8.0.8.3.3.8.1.$.^ U ~ } :.8.X.} ",
"K #.:.-.{ U ~ X.-.#.#.:.8.0.0.8.U U } U $.$.f $.j.i.u.d.x.j.0.} r.p.d.d.p.p.p.d.^ U K G ~ #.8.q.y.i.",
"1.3.3.1.<.-.-.-.{ { #.:.0.u.u.q.U D o.U $.$.f o.r.r.u.d.l.j.r.3.r.r.i.i.r.q.q.u.-.1.3.0.q.r.u.p.r.r.",
"{ G C C U U C c 1.X.~ G K T { ) P D @.U $.} u } U _ <.3.3.;.;.&.U ^ ^ T K D K J C K { ) ~ G b z z g ",
"8 : o o - - @ o o 0 o o @ @ o 7 > 7 @ o y B d o @ o o o @ > : @ o 8 i g i q 8 7 > > > : : > y y y - ",
"` T J J Y E Y Y H _ H g Y J B E E _ Y H _ ,.E 7 7 0 d M E o.o. .Y  .<.6.6.4.,.,. ._ _ _ _  .o.%.o.E "
};
